#!OML:ASF F:\twosubjects\two\Thursday\Session 1\Rory.ASF
:FULLY-SPECIFIED
:DEGREES
440
root 13.1839 17.0272 -3.57422 -8.24722 -55.7586 19.141
lowerback 24.5392 3.05812 0.987168
upperback 12.5403 3.40596 -1.85115
thorax 0.395976 1.57295 -3.34684
lowerneck -6.4763 13.2005 11.3216
upperneck -7.27057 16.8951 -26.9441
head 2.54371 8.34212 -9.03354
rclavicle -9.54166e-015 -1.11319e-014
rhumerus -63.2708 -21.8456 -36.2193
rradius 14.8686
rwrist 66.1629
rhand -26.9774 17.0018
rfingers 7.12502
rthumb -0.398247 -12.9776
lclavicle -9.54166e-015 -1.11319e-014
lhumerus -77.7943 -17.3315 92.6716
lradius 35.5242
lwrist -13.0713
lhand 22.247 37.4153
lfingers 7.12502
lthumb 46.6223 60.2462
rfemur -27.604 -4.25182 -7.60367
rtibia 52.1533
rfoot -15.8924 -19.9674
rtoes -22.2616
lfemur -30.6555 0.0799171 -11.0645
ltibia 38.2238
lfoot -10.8344 1.43666
ltoes -20.2175
441
root 13.2092 17.0308 -3.56997 -7.89841 -55.3838 18.9366
lowerback 24.4919 2.81223 0.627917
upperback 12.6687 3.02077 -1.6293
thorax 0.499028 1.35398 -2.81041
lowerneck -6.44098 13.1869 10.1428
upperneck -7.85497 16.8013 -26.344
head 2.17015 8.35672 -8.69386
rclavicle 7.15625e-014 -5.725e-014
rhumerus -63.2217 -22.6834 -34.6365
rradius 14.3716
rwrist 68.7574
rhand -27.0845 17.6632
rfingers 7.12502
rthumb -0.501709 -12.316
lclavicle 7.15625e-014 -5.725e-014
lhumerus -77.1566 -15.6174 92.2774
lradius 35.1674
lwrist -13.692
lhand 23.1304 36.395
lfingers 7.12502
lthumb 47.4393 58.8653
rfemur -27.3745 -3.84443 -7.72112
rtibia 51.796
rfoot -15.0644 -20.5327
rtoes -26.0143
lfemur -31.1689 0.0605618 -11.2136
ltibia 38.4238
lfoot -10.6539 1.38336
ltoes -20.0625
442
root 13.2473 17.0401 -3.56313 -7.03273 -55.1784 17.9987
lowerback 24.759 2.58947 0.986498
upperback 12.697 2.80535 -1.57309
thorax 0.409149 1.25934 -2.9145
lowerneck -6.5015 13.0663 9.79024
upperneck -8.16605 16.5732 -25.7803
head 1.95141 8.26364 -8.50076
rclavicle -7.95139e-014 3.49861e-014
rhumerus -63.3926 -22.9378 -34.6016
rradius 14.2615
rwrist 69.6913
rhand -26.9864 17.7084
rfingers 7.12502
rthumb -0.406948 -12.271
lclavicle -7.95139e-014 3.49861e-014
lhumerus -77.4037 -15.2292 92.8934
lradius 35.5064
lwrist -12.9084
lhand 23.0345 36.6978
lfingers 7.12502
lthumb 47.3507 59.208
rfemur -27.1087 -3.25244 -7.37697
rtibia 51.4347
rfoot -15.1078 -20.6752
rtoes -26.3574
lfemur -31.6148 -0.0570972 -10.8609
ltibia 38.6181
lfoot -10.3475 1.57301
ltoes -21.3499
443
root 13.2905 17.0478 -3.55147 -6.5475 -55.0689 17.4299
lowerback 25.2238 2.58169 1.323
upperback 12.6959 2.85645 -1.61779
thorax 0.214693 1.29858 -3.18582
lowerneck -6.34375 12.8668 10.2738
upperneck -8.51225 16.2164 -25.8674
head 1.8191 8.1054 -8.67093
rclavicle -3.89618e-014 3.18055e-014
rhumerus -63.6666 -22.6524 -35.5872
rradius 14.2684
rwrist 69.2503
rhand -27.1852 17.1772
rfingers 7.12502
rthumb -0.59895 -12.8017
lclavicle -3.89618e-014 3.18055e-014
lhumerus -77.8587 -15.5345 93.6715
lradius 35.9295
lwrist -12.1427
lhand 22.7656 36.8416
lfingers 7.12502
lthumb 47.1022 59.4626
rfemur -26.8514 -2.71004 -7.26644
rtibia 51.1042
rfoot -15.6315 -20.4962
rtoes -24.4057
lfemur -31.9204 -0.260102 -10.6837
ltibia 38.7902
lfoot -10.1219 1.88535
ltoes -22.9892
444
root 13.325 17.0467 -3.54679 -6.55771 -54.8669 17.5765
lowerback 25.509 2.71604 1.07628
upperback 12.7656 2.97006 -1.52822
thorax 0.145432 1.33744 -2.9867
lowerneck -6.30408 12.6736 10.1386
upperneck -8.91184 15.8791 -25.8585
head 1.62691 7.96659 -8.70692
rclavicle 2.38542e-014 -2.8625e-014
rhumerus -63.5719 -21.8621 -37.0516
rradius 14.443
rwrist 67.8576
rhand -27.3385 16.7107
rfingers 7.12502
rthumb -0.747068 -13.2678
lclavicle 2.38542e-014 -2.8625e-014
lhumerus -77.9569 -15.7495 94.5264
lradius 35.9579
lwrist -11.5504
lhand 23.2183 35.6779
lfingers 7.12502
lthumb 47.5205 58.1114
rfemur -26.704 -2.44152 -7.57922
rtibia 50.8117
rfoot -15.8443 -20.4121
rtoes -23.6827
lfemur -32.2481 -0.634649 -10.8703
ltibia 38.957
lfoot -9.93944 2.18846
ltoes -24.4891
445
root 13.3566 17.0406 -3.54616 -6.44893 -54.7634 17.6831
lowerback 25.5383 2.64225 0.603142
upperback 12.8394 2.77413 -1.37227
thorax 0.165896 1.2089 -2.50186
lowerneck -6.08713 12.6402 9.17938
upperneck -9.54182 15.7605 -25.4543
head 1.25902 7.98112 -8.48309
rclavicle -2.22639e-014 1.11319e-014
rhumerus -62.9067 -20.9753 -38.1141
rradius 14.5391
rwrist 67.13
rhand -27.0736 16.743
rfingers 7.12502
rthumb -0.491182 -13.2361
lclavicle -2.22639e-014 1.11319e-014
lhumerus -77.5538 -14.603 94.657
lradius 35.4515
lwrist -11.2314
lhand 23.5406 34.5043
lfingers 7.12502
lthumb 47.818 56.8016
rfemur -26.7482 -2.18956 -7.80385
rtibia 50.547
rfoot -16.0562 -20.4114
rtoes -23.1663
lfemur -32.597 -1.05611 -10.9419
ltibia 39.09
lfoot -9.83545 2.60519
ltoes -25.7872
446
root 13.3969 17.047 -3.53741 -6.05818 -54.847 17.5387
lowerback 25.6607 2.96364 0.891327
upperback 12.9731 3.22441 -1.62428
thorax 0.318618 1.45824 -3.04861
lowerneck -7.0068 12.2945 9.8855
upperneck -9.33409 15.24 -25.1331
head 1.41033 7.62558 -8.49158
rclavicle -2.22639e-014 -4.77083e-015
rhumerus -64.1042 -22.2676 -37.8225
rradius 14.5756
rwrist 67.757
rhand -26.7586 16.9996
rfingers 7.12502
rthumb -0.186925 -12.98
lclavicle -2.22639e-014 -4.77083e-015
lhumerus -77.1848 -15.5582 94.6935
lradius 35.1228
lwrist -10.6696
lhand 23.114 34.8158
lfingers 7.12502
lthumb 47.4242 57.2929
rfemur -26.9755 -2.08807 -7.80145
rtibia 50.2532
rfoot -16.1154 -20.397
rtoes -22.5945
lfemur -33.0131 -1.44825 -10.8102
ltibia 39.194
lfoot -10.0221 3.05366
ltoes -23.9839
447
root 13.4318 17.0575 -3.53045 -5.5378 -54.8436 17.3109
lowerback 25.5818 2.89558 0.891159
upperback 13.0024 3.13289 -1.74331
thorax 0.391187 1.41806 -3.15116
lowerneck -6.97459 12.27 9.96711
upperneck -9.69581 15.1391 -24.9479
head 1.27115 7.59291 -8.47322
rclavicle 3.81667e-014 -1.82882e-014
rhumerus -64.2673 -22.5628 -37.8313
rradius 14.5103
rwrist 68.6063
rhand -26.5239 16.7192
rfingers 7.12502
rthumb 0.039743 -13.2605
lclavicle 3.81667e-014 -1.82882e-014
lhumerus -77.576 -15.3715 95.4046
lradius 35.3977
lwrist -9.76714
lhand 21.8454 36.2293
lfingers 7.12502
lthumb 46.2501 59.219
rfemur -27.1578 -2.27252 -7.69196
rtibia 49.8775
rfoot -15.8135 -20.5693
rtoes -23.6849
lfemur -33.5422 -2.02919 -10.5762
ltibia 39.365
lfoot -10.1985 3.49944
ltoes -21.6091
448
root 13.4385 17.0565 -3.54521 -4.71958 -54.7385 16.5822
lowerback 25.4136 2.56681 0.289102
upperback 12.9224 2.60311 -1.48169
thorax 0.298952 1.11156 -2.3943
lowerneck -5.97616 12.574 9.39717
upperneck -10.5632 15.4873 -24.8568
head 0.855978 7.89462 -8.40959
rclavicle 2.38542e-015 4.69132e-014
rhumerus -63.1394 -21.1766 -38.8675
rradius 14.4436
rwrist 68.603
rhand -26.1805 16.7172
rfingers 7.12502
rthumb 0.371397 -13.2622
lclavicle 2.38542e-015 4.69132e-014
lhumerus -77.778 -13.2333 95.367
lradius 35.1716
lwrist -9.3767
lhand 20.759 36.5602
lfingers 7.12502
lthumb 45.2414 59.9641
rfemur -27.137 -2.23236 -7.15959
rtibia 49.4839
rfoot -15.7495 -21.123
rtoes -24.9832
lfemur -33.9825 -2.22823 -10.0604
ltibia 39.5252
lfoot -10.1655 3.57215
ltoes -22.0128
449
root 13.4868 17.0567 -3.52795 -4.11648 -54.8101 15.9034
lowerback 25.8024 2.62563 0.968374
upperback 12.9323 2.80651 -1.65357
thorax 0.187099 1.25037 -3.03075
lowerneck -6.50732 12.427 10.0299
upperneck -10.2289 15.2924 -24.6213
head 1.03577 7.72255 -8.41092
rclavicle 6.2816e-014 2.06736e-014
rhumerus -63.9082 -21.409 -39.1495
rradius 14.5135
rwrist 68.4861
rhand -26.0504 17.5875
rfingers 7.12502
rthumb 0.497028 -12.3917
lclavicle 6.2816e-014 2.06736e-014
lhumerus -77.3892 -13.2355 94.6617
lradius 34.3284
lwrist -9.11795
lhand 20.4664 35.8807
lfingers 7.12502
lthumb 44.9694 59.3923
rfemur -27.0633 -2.43263 -6.7442
rtibia 49.0715
rfoot -15.822 -21.3068
rtoes -25.6507
lfemur -34.2303 -2.10923 -9.73452
ltibia 39.6596
lfoot -10.1542 3.49299
ltoes -22.9719
450
root 13.5203 17.059 -3.52849 -3.45016 -54.9259 15.3795
lowerback 25.8467 2.65235 1.307
upperback 12.9466 2.90941 -1.68478
thorax 0.211743 1.31933 -3.28357
lowerneck -6.61947 12.2007 9.66879
upperneck -10.4049 14.9588 -24.0993
head 0.861081 7.56275 -8.23261
rclavicle -4.77083e-015 -4.05521e-014
rhumerus -64.0384 -21.1436 -39.852
rradius 14.6003
rwrist 67.6904
rhand -26.0782 17.9911
rfingers 7.12502
rthumb 0.470222 -11.9882
lclavicle -4.77083e-015 -4.05521e-014
lhumerus -77.084 -12.8617 94.3508
lradius 33.502
lwrist -8.68231
lhand 20.389 35.6513
lfingers 7.12502
lthumb 44.8973 59.1912
rfemur -27.2408 -2.59828 -6.3628
rtibia 48.6829
rfoot -16.1837 -21.4228
rtoes -25.1908
lfemur -34.5638 -2.2997 -9.33796
ltibia 39.6975
lfoot -10.2097 3.69008
ltoes -23.185
451
root 13.5486 17.0525 -3.54474 -2.9828 -54.9196 15.0897
lowerback 25.8812 2.69823 1.277
upperback 13.0125 2.95491 -1.69934
thorax 0.272164 1.34083 -3.2933
lowerneck -6.52172 12.0357 9.38108
upperneck -10.923 14.6632 -23.7749
head 0.59052 7.45166 -8.14715
rclavicle -6.36111e-015 -1.66979e-014
rhumerus -63.9669 -20.8528 -40.8372
rradius 14.7849
rwrist 66.5321
rhand -25.9394 17.8267
rfingers 7.12502
rthumb 0.604319 -12.1522
lclavicle -6.36111e-015 -1.66979e-014
lhumerus -77.0573 -12.8081 94.6784
lradius 32.8885
lwrist -7.35648
lhand 22.3501 34.4483
lfingers 7.12502
lthumb 46.7177 57.2379
rfemur -27.3263 -2.77659 -6.10433
rtibia 48.2387
rfoot -16.7418 -21.4776
rtoes -23.6431
lfemur -34.8875 -2.8392 -8.93145
ltibia 39.6821
lfoot -10.3419 3.99174
ltoes -22.7649
452
root 13.5803 17.0514 -3.55679 -3.04584 -54.8048 15.1079
lowerback 26.1014 2.79464 1.07186
upperback 13.2023 3.01568 -1.69557
thorax 0.37495 1.35855 -3.19279
lowerneck -6.80813 11.9698 9.58008
upperneck -10.9345 14.5441 -23.8766
head 0.642938 7.37012 -8.20563
rclavicle 8.18993e-014 -6.36111e-015
rhumerus -64.2063 -21.2323 -40.6966
rradius 14.7497
rwrist 66.4643
rhand -25.6729 17.645
rfingers 7.12502
rthumb 0.861669 -12.333
lclavicle 8.18993e-014 -6.36111e-015
lhumerus -76.8755 -12.8197 95.1403
lradius 32
lwrist -5.61691
lhand 23.9592 32.3277
lfingers 7.12502
lthumb 48.2039 54.4449
rfemur -27.01 -3.12463 -6.03415
rtibia 47.7087
rfoot -17.0469 -21.6076
rtoes -22.6123
lfemur -34.9068 -3.5111 -8.71925
ltibia 39.5746
lfoot -10.4756 4.14654
ltoes -21.7283
453
root 13.6036 17.061 -3.56681 -3.07688 -54.7803 15.0494
lowerback 26.1745 2.91228 0.711665
upperback 13.3891 3.07714 -1.52424
thorax 0.521832 1.36136 -2.81608
lowerneck -6.9435 11.876 9.31974
upperneck -10.9149 14.4203 -23.8431
head 0.62638 7.30796 -8.15945
rclavicle 0 -4.05521e-014
rhumerus -64.2574 -21.4196 -40.1221
rradius 14.4968
rwrist 66.8894
rhand -25.4285 17.3159
rfingers 7.12502
rthumb 1.0977 -12.661
lclavicle 0 -4.05521e-014
lhumerus -76.5959 -12.4164 95.7016
lradius 30.8563
lwrist -4.18009
lhand 23.3589 29.9046
lfingers 7.12502
lthumb 47.6504 52.2789
rfemur -26.6423 -3.39013 -5.90516
rtibia 47.1103
rfoot -17.2828 -21.6556
rtoes -21.6509
lfemur -34.8215 -4.01675 -8.53178
ltibia 39.4564
lfoot -10.4976 4.36668
ltoes -20.9932
454
root 13.6225 17.068 -3.58631 -2.74221 -54.7624 14.6257
lowerback 26.1828 2.85124 0.422397
upperback 13.5362 2.92861 -1.40977
thorax 0.651446 1.26421 -2.48875
lowerneck -6.91975 11.9239 8.82165
upperneck -11.1496 14.4782 -23.4833
head 0.485471 7.36271 -7.97579
rclavicle -3.97569e-014 5.32743e-014
rhumerus -63.7744 -21.0775 -40.4873
rradius 14.3537
rwrist 66.9389
rhand -25.4384 17.1352
rfingers 7.12502
rthumb 1.08813 -12.8418
lclavicle -3.97569e-014 5.32743e-014
lhumerus -76.6053 -11.8176 96.2428
lradius 30.2049
lwrist -2.95805
lhand 20.4361 27.4093
lfingers 7.12502
lthumb 44.9411 50.932
rfemur -26.3257 -3.38311 -5.58127
rtibia 46.5058
rfoot -18.332 -21.3102
rtoes -18.3344
lfemur -34.8405 -4.56893 -8.03727
ltibia 39.3872
lfoot -10.5105 4.54071
ltoes -19.3349
